<svg width="518" height="530" viewBox="0 0 518 530" fill="none" xmlns="http://www.w3.org/2000/svg">
<g filter="url(#filter0_d_34_65)">
<path d="M270.314 21.0001V21.3223C132.622 21.3223 21 134.639 21 274.421C21 373.976 63.8516 451.773 146.184 493.102C136.046 487.808 140.348 490.009 131.677 483.036C95.6525 454.069 73.3975 410.683 73.3975 353.101C73.3975 238.649 161.317 145.689 270.222 144.641V144.632H365.396C432.655 144.632 487.18 89.2798 487.18 21.0001H270.314Z" fill="url(#paint0_linear_34_65)"/>
</g>
<path d="M143.264 490.907C161.826 494.411 179.736 492.577 197.451 489.147C227.389 483.351 254.31 469.192 279.928 450.049C322.499 418.236 353.942 370.527 362.189 319.712L245.748 320.816C245.34 320.82 244.969 320.658 244.696 320.392C244.156 319.976 243.945 319.226 244.23 318.568L260.097 281.892L260.103 281.878L260.113 281.851C260.132 281.805 260.161 281.735 260.196 281.648C260.269 281.47 260.374 281.206 260.514 280.868C260.792 280.19 261.2 279.207 261.716 277.988C262.748 275.548 264.217 272.153 265.964 268.333C269.449 260.715 274.077 251.33 278.575 244.466C279.888 242.463 281.471 240.299 283.21 238.07C298.966 217.878 324.122 208.61 349.256 208.61C349.323 208.61 349.396 208.602 349.461 208.61L517.133 208.625V278.334C517.133 321.827 506.415 364.629 485.955 402.843L484.308 405.919C473.542 426.026 459.96 444.444 443.988 460.594C397.154 507.947 332.574 533.89 266.751 526.843C245.836 524.604 226.787 521.983 215.711 519.085C197.963 514.44 159.247 497.551 142.338 490.907C140.985 490.488 141.95 490.659 143.264 490.907Z" fill="url(#paint1_linear_34_65)"/>
<defs>
<filter id="filter0_d_34_65" x="0" y="0" width="516.18" height="522.102" filterUnits="userSpaceOnUse" color-interpolation-filters="sRGB">
<feFlood flood-opacity="0" result="BackgroundImageFix"/>
<feColorMatrix in="SourceAlpha" type="matrix" values="0 0 0 0 0 0 0 0 0 0 0 0 0 0 0 0 0 0 127 0" result="hardAlpha"/>
<feOffset dx="4" dy="4"/>
<feGaussianBlur stdDeviation="12.5"/>
<feComposite in2="hardAlpha" operator="out"/>
<feColorMatrix type="matrix" values="0 0 0 0 0 0 0 0 0 0 0 0 0 0 0 0 0 0 0.1 0"/>
<feBlend mode="normal" in2="BackgroundImageFix" result="effect1_dropShadow_34_65"/>
<feBlend mode="normal" in="SourceGraphic" in2="effect1_dropShadow_34_65" result="shape"/>
</filter>
<linearGradient id="paint0_linear_34_65" x1="489.18" y1="274.26" x2="19" y2="274.26" gradientUnits="userSpaceOnUse">
<stop stop-color="#FAFAFA"/>
<stop offset="0.740385" stop-color="#6A2393"/>
<stop offset="1" stop-color="#4B0A4B"/>
</linearGradient>
<linearGradient id="paint1_linear_34_65" x1="517.133" y1="368.297" x2="141.684" y2="368.297" gradientUnits="userSpaceOnUse">
<stop stop-color="white"/>
<stop offset="0.571225" stop-color="#56077B"/>
</linearGradient>
</defs>
</svg>
